<?xml version="1.0" standalone="no"?>
<!DOCTYPE svg PUBLIC "-//W3C//DTD SVG 20010904//EN"
 "http://www.w3.org/TR/2001/REC-SVG-20010904/DTD/svg10.dtd">
<svg version="1.0" xmlns="http://www.w3.org/2000/svg"
 width="100.000000pt" height="100.000000pt" viewBox="0 0 100.000000 100.000000"
 preserveAspectRatio="xMidYMid meet">
<metadata>
Created by potrace 1.11, written by Peter Selinger 2001-2013
</metadata>
<g transform="translate(0.000000,100.000000) scale(0.100000,-0.100000)"
fill="#000000" stroke="none">
<path d="M632 924 c-18 -31 -32 -59 -32 -64 0 -4 -7 -13 -15 -20 -15 -12 -12
-30 5 -30 9 0 20 27 19 44 0 5 3 12 8 15 16 11 62 101 54 105 -4 3 -22 -20
-39 -50z"/>
<path d="M213 958 c3 -10 22 -43 42 -73 19 -31 35 -60 35 -65 0 -6 5 -10 10
-10 19 0 10 -22 -24 -55 -42 -41 -63 -80 -72 -133 -5 -32 -10 -40 -28 -39 -79
1 -176 -7 -176 -15 0 -5 43 -8 97 -7 l97 2 12 -45 c6 -24 19 -57 29 -73 29
-48 97 -103 133 -110 19 -3 46 -11 61 -17 l26 -11 -25 -6 c-24 -7 -25 -11 -28
-94 -1 -48 1 -88 5 -88 38 -6 555 -3 559 2 2 4 5 46 5 93 0 56 5 91 14 103 18
23 18 47 3 91 -10 28 -10 36 0 39 18 7 15 37 -6 63 -15 18 -30 23 -69 24 -35
1 -58 7 -72 20 -25 23 -15 33 29 30 20 -1 30 2 27 9 -2 8 -22 11 -51 9 l-48
-3 -108 104 c-95 92 -114 106 -159 117 -69 16 -120 15 -166 -4 -44 -19 -45
-19 -45 -6 0 13 -72 123 -95 147 -17 16 -18 16 -12 1z m332 -203 c57 -27 100
-79 111 -133 l7 -32 -63 0 c-54 0 -61 2 -56 17 4 10 -2 25 -15 39 l-21 23 22
36 c12 20 20 38 17 41 -3 3 -15 -14 -28 -37 -13 -23 -30 -45 -38 -47 -9 -3
-11 0 -5 9 7 12 5 12 -9 0 -14 -11 -17 -11 -17 0 0 8 -6 6 -16 -7 -8 -10 -13
-13 -9 -6 3 7 0 12 -8 12 -12 0 -64 78 -56 84 40 33 119 33 184 1z m-156 -77
c16 -26 18 -38 10 -44 -8 -5 -9 -3 -4 6 5 8 4 11 -3 6 -6 -4 -9 -12 -6 -19 2
-7 -3 -21 -12 -32 -8 -11 -12 -13 -8 -5 6 12 4 13 -7 3 -7 -7 -35 -13 -61 -13
-42 0 -48 3 -48 21 0 31 28 85 63 119 34 33 29 36 76 -42z m381 -73 c0 -3 -13
-5 -29 -5 -23 0 -30 5 -34 28 -3 15 -9 36 -13 47 -5 12 9 3 34 -22 23 -23 42
-45 42 -48z m-240 30 c7 -9 11 -17 8 -20 -2 -2 -12 4 -21 15 -9 11 -13 20 -8
20 5 0 14 -7 21 -15z m-60 -19 c0 -8 -4 -18 -10 -21 -5 -3 -10 -4 -10 -1 0 2
-3 11 -6 20 -4 11 -1 16 10 16 9 0 16 -6 16 -14z m-38 -28 c-6 -6 -15 -9 -18
-5 -4 3 -4 14 0 23 5 13 9 15 18 6 9 -9 9 -15 0 -24z m72 17 c4 -10 -1 -15
-14 -15 -13 0 -18 5 -14 15 4 8 10 15 14 15 4 0 10 -7 14 -15z m-40 -47 c12
-16 13 -24 4 -29 -18 -12 -29 0 -23 24 5 20 5 20 -5 4 -10 -15 -14 -16 -27 -6
-13 12 -13 14 4 20 28 11 31 11 47 -13z m46 9 c0 -21 -12 -28 -27 -16 -19 16
-16 29 7 29 11 0 20 -6 20 -13z m150 -14 c0 -33 -25 -86 -59 -125 l-24 -28
-34 50 c-39 58 -40 63 -12 89 12 11 19 24 15 29 -3 5 22 10 54 11 60 2 60 2
60 -26z m169 2 c23 -24 23 -26 6 -45 -13 -14 -16 -28 -11 -52 11 -50 8 -91 -6
-100 -8 -4 -8 -8 -2 -8 6 0 16 -11 22 -25 13 -29 22 -27 -101 -29 -73 -2 -90
1 -104 16 -16 18 -9 24 20 19 5 -1 6 3 2 9 -3 6 -11 8 -16 4 -5 -3 -16 0 -24
6 -12 10 -9 16 17 38 37 31 78 114 78 160 0 32 1 32 48 32 37 0 52 -6 71 -25z
m-436 -17 c10 -18 12 -26 4 -22 -9 5 -9 4 0 -6 9 -10 7 -23 -13 -61 -13 -27
-22 -49 -19 -49 2 0 18 26 34 58 17 31 30 52 31 46 0 -8 11 -9 35 -4 20 5 33
4 29 -1 -3 -5 -1 -9 4 -9 10 0 67 -89 60 -94 -22 -14 -67 -26 -101 -26 -49 0
-135 38 -156 68 -8 12 -19 18 -23 15 -5 -3 -8 1 -7 8 1 8 -3 27 -9 42 -7 16
-12 37 -12 48 0 18 6 20 63 18 58 -2 65 -4 80 -31z m567 -69 c0 -36 -12 -37
-35 -3 -9 14 -19 23 -23 19 -4 -3 0 -10 8 -16 13 -8 13 -10 0 -19 -24 -16 -55
-7 -58 18 -3 20 6 27 31 23 4 0 7 3 7 7 0 4 16 6 35 4 31 -4 35 -8 35 -33z
m-350 -154 c14 -16 14 -16 -50 -19 -44 -2 -74 16 -40 24 45 11 79 9 90 -5z
m-119 -74 c7 5 19 9 25 9 18 0 24 -38 8 -51 -8 -6 -14 -20 -14 -30 0 -12 -5
-16 -15 -13 -10 4 -12 15 -8 36 5 24 3 30 -8 26 -8 -3 -13 -15 -11 -30 3 -25
-20 -44 -39 -32 -17 10 -10 36 9 30 16 -6 16 -5 0 8 -34 25 -14 64 23 45 8 -4
22 -3 30 2z m90 -41 c2 19 8 33 13 32 5 -2 13 2 17 10 13 19 27 -6 21 -38 -3
-15 0 -24 8 -24 7 0 10 8 7 20 -6 25 16 55 35 48 9 -4 15 -21 16 -42 1 -30 -3
-39 -21 -45 -14 -5 -25 -4 -29 3 -6 8 -11 7 -17 -4 -9 -12 -11 -12 -17 4 -6
15 -8 16 -15 3 -5 -9 -18 -13 -33 -10 -21 4 -24 10 -23 42 2 53 21 59 28 8 l5
-42 5 35z m158 24 c-6 -8 -7 -14 -2 -14 16 0 7 -55 -10 -58 -14 -3 -17 5 -17
41 0 48 5 58 26 50 11 -4 12 -9 3 -19z m69 -22 c2 -33 0 -42 -12 -42 -9 0 -19
-1 -23 -2 -5 -2 -9 18 -11 45 -3 44 -2 47 20 44 19 -3 24 -11 26 -45z m40 -8
c-2 -22 -7 -39 -13 -39 -10 0 -17 60 -9 84 9 28 25 -6 22 -45z m114 47 c4 -1
1 -13 -7 -28 -8 -15 -12 -30 -9 -35 7 -11 -5 -30 -16 -23 -4 3 -4 20 0 40 5
22 4 33 -2 32 -6 -1 -13 4 -15 11 -3 8 3 11 19 8 12 -3 26 -5 30 -5z m-71 -14
c-8 -10 -7 -17 1 -25 9 -9 9 -12 -2 -12 -11 0 -11 -3 -2 -12 17 -17 15 -24 -8
-24 -17 0 -20 7 -20 43 0 37 3 43 21 43 17 0 19 -3 10 -13z"/>
<path d="M735 350 c-2 -3 5 -7 16 -7 10 -1 19 2 19 6 0 9 -29 10 -35 1z"/>
<path d="M678 343 c7 -3 16 -2 19 1 4 3 -2 6 -13 5 -11 0 -14 -3 -6 -6z"/>
<path d="M315 331 c3 -5 1 -12 -5 -16 -9 -5 -70 -120 -70 -131 0 -2 4 -4 8 -4
5 0 19 21 32 48 13 26 31 59 41 73 18 25 16 39 -3 39 -5 0 -7 -4 -3 -9z"/>
<path d="M603 87 c-9 -15 6 -19 84 -21 68 -2 79 0 79 15 0 14 -11 17 -79 15
-43 0 -81 -5 -84 -9z"/>
<path d="M723 43 c9 -2 23 -2 30 0 6 3 -1 5 -18 5 -16 0 -22 -2 -12 -5z"/>
</g>
</svg>
